<svg width="80" height="80" viewBox="0 0 80 80" fill="none" xmlns="http://www.w3.org/2000/svg">
<path d="M80 0H0V80H80V0Z" fill="#F7DF1E"/>
<path d="M53.739 62.5004C55.3505 65.1315 57.447 67.0655 61.1549 67.0655C64.2698 67.0655 66.2597 65.5087 66.2597 63.3576C66.2597 60.7798 64.2152 59.8668 60.7867 58.3671L58.9073 57.5607C53.4825 55.2496 49.8787 52.3544 49.8787 46.2337C49.8787 40.5956 54.1746 36.3036 60.8882 36.3036C65.6679 36.3036 69.1041 37.9671 71.5803 42.3226L65.7263 46.0814C64.4374 43.7703 63.047 42.8598 60.8882 42.8598C58.6863 42.8598 57.2908 44.2566 57.2908 46.0814C57.2908 48.3366 58.6876 49.2496 61.913 50.6464L63.7924 51.4515C70.1797 54.1906 73.786 56.983 73.786 63.261C73.786 70.0293 68.4692 73.7372 61.3289 73.7372C54.3473 73.7372 49.8368 70.4103 47.6298 66.0496L53.739 62.5004ZM27.1828 63.1518C28.3638 65.2471 29.4381 67.0185 32.0209 67.0185C34.4908 67.0185 36.0489 66.0522 36.0489 62.2947V36.7328H43.5663V62.3963C43.5663 70.1804 39.0025 73.7233 32.3409 73.7233C26.3219 73.7233 22.8362 70.6083 21.0635 66.8566L27.1828 63.1518Z" fill="black"/>
</svg>
