<svg width="73" height="90" viewBox="0 0 73 90" fill="none" xmlns="http://www.w3.org/2000/svg">
<path d="M45.057 0.0307316L73 0L26.1193 46.7632L13.9013 58.8886L0 44.9979L45.057 0.0307316ZM44.797 41.7847C45.1597 41.3067 45.8269 41.5423 46.3332 41.4808L72.9761 41.4876L48.694 65.6973L34.7208 51.8374L44.797 41.7847Z" fill="#44D1FD"/>
<path d="M20.792 65.7213L34.7207 51.8374L48.6939 65.6973L48.7521 65.7588L34.7241 79.629L20.792 65.7213Z" fill="#1FBCFD"/>
<path d="M34.7246 79.629L48.7525 65.7588L72.9867 89.9684C63.8582 89.9889 54.7332 89.9616 45.6082 89.9821C45.0882 90.0982 44.7666 89.6236 44.4347 89.3299L34.7246 79.629Z" fill="#08589C"/>
</svg>
