<svg width="80" height="80" viewBox="0 0 80 80" fill="none" xmlns="http://www.w3.org/2000/svg">
<path d="M72.1875 0H7.8125C3.49778 0 0 3.49778 0 7.8125V72.1875C0 76.5022 3.49778 80 7.8125 80H72.1875C76.5022 80 80 76.5022 80 72.1875V7.8125C80 3.49778 76.5022 0 72.1875 0Z" fill="#3178C6"/>
<path d="M72.1875 0H7.8125C3.49778 0 0 3.49778 0 7.8125V72.1875C0 76.5022 3.49778 80 7.8125 80H72.1875C76.5022 80 80 76.5022 80 72.1875V7.8125C80 3.49778 76.5022 0 72.1875 0Z" fill="#3178C6"/>
<path fill-rule="evenodd" clip-rule="evenodd" d="M49.5217 63.6599V71.4819C50.7933 72.1338 52.2972 72.6225 54.0334 72.9485C55.7697 73.2744 57.5995 73.4374 59.5233 73.4374C61.3981 73.4374 63.1791 73.2582 64.8664 72.8996C66.5537 72.5411 68.0333 71.9503 69.3048 71.1274C70.5764 70.3046 71.5831 69.2289 72.3248 67.9008C73.0666 66.5727 73.4375 64.931 73.4375 62.9755C73.4375 61.5577 73.2256 60.3152 72.8017 59.2478C72.3778 58.1805 71.7666 57.2313 70.9677 56.4002C70.1689 55.5691 69.2111 54.8235 68.0944 54.1635C66.9777 53.5035 65.7183 52.8802 64.3162 52.2936C63.2892 51.8699 62.3681 51.4585 61.553 51.0593C60.7378 50.6599 60.045 50.2525 59.4744 49.8371C58.9037 49.4214 58.4636 48.9814 58.1539 48.5171C57.8442 48.0525 57.6892 47.5271 57.6892 46.9403C57.6892 46.4027 57.8278 45.9178 58.105 45.486C58.3822 45.0541 58.7734 44.6835 59.2788 44.3738C59.7842 44.0643 60.4036 43.8238 61.1372 43.6527C61.8709 43.4816 62.6859 43.3961 63.5827 43.3961C64.2347 43.3961 64.9234 43.445 65.6489 43.5427C66.3744 43.6405 67.1039 43.7913 67.8377 43.9949C68.5713 44.1986 69.2844 44.4553 69.9773 44.7649C70.6702 45.0746 71.31 45.433 71.8969 45.8405V38.5318C70.7069 38.0755 69.4067 37.7374 67.9966 37.5174C66.5864 37.2974 64.9683 37.1874 63.1425 37.1874C61.2839 37.1874 59.5233 37.3871 57.8605 37.7863C56.1977 38.1855 54.7345 38.8088 53.4709 39.6561C52.2075 40.5036 51.2091 41.5832 50.4755 42.895C49.7419 44.2068 49.375 45.7752 49.375 47.6003C49.375 49.9307 50.0475 51.9188 51.3925 53.5647C52.7373 55.2105 54.7792 56.6038 57.5181 57.7446C58.5941 58.1846 59.5967 58.6163 60.5259 59.04C61.4552 59.4638 62.2581 59.9038 62.9345 60.36C63.6111 60.8163 64.145 61.3133 64.5364 61.8511C64.9277 62.3888 65.1233 62.9999 65.1233 63.6844C65.1233 64.1896 65.0009 64.658 64.7564 65.0899C64.5119 65.5218 64.1409 65.8964 63.6438 66.2143C63.1466 66.5321 62.527 66.7805 61.7853 66.9597C61.0434 67.1391 60.1755 67.2286 59.1809 67.2286C57.4855 67.2286 55.8064 66.9313 54.1434 66.3364C52.4806 65.7418 50.94 64.8496 49.5217 63.6599ZM36.3719 44.3877H46.4062V37.9686H18.4375V44.3877H28.4228V72.9686H36.3719V44.3877Z" fill="white"/>
</svg>
