<svg width="88" height="120" viewBox="0 0 88 120" fill="none" xmlns="http://www.w3.org/2000/svg">
<path fill-rule="evenodd" clip-rule="evenodd" d="M28.3397 92.8009C28.3397 92.8009 23.7827 95.4685 31.5866 96.3686C41.0422 97.4543 45.874 97.298 56.2909 95.3177C56.2909 95.3177 59.0352 97.0442 62.8611 98.5395C39.5015 108.605 9.9936 97.9563 28.3397 92.8009Z" fill="#0074BD"/>
<path fill-rule="evenodd" clip-rule="evenodd" d="M25.4836 79.6638C25.4836 79.6638 20.3718 83.4702 28.1814 84.2819C38.2829 85.3307 46.2573 85.4167 60.0641 82.7444C60.0641 82.7444 61.9693 84.6907 64.9695 85.7544C36.7309 94.0615 5.2788 86.408 25.4836 79.6638Z" fill="#0074BD"/>
<path fill-rule="evenodd" clip-rule="evenodd" d="M49.5455 57.3766C55.3043 64.0435 48.0355 70.038 48.0355 70.038C48.0355 70.038 62.6494 62.4521 55.9394 52.948C49.6701 44.089 44.8636 39.6883 70.8848 24.5115C70.8848 24.5115 30.038 34.7689 49.5455 57.3766Z" fill="#EA2D2E"/>
<path fill-rule="evenodd" clip-rule="evenodd" d="M80.4407 102.519C80.4407 102.519 83.8142 105.316 76.7251 107.479C63.2451 111.585 20.609 112.824 8.76676 107.643C4.51273 105.78 12.4939 103.197 15.0051 102.651C17.6235 102.082 19.1185 102.186 19.1185 102.186C14.3841 98.8328 -11.4822 108.771 5.98133 111.621C53.605 119.385 92.792 108.124 80.4407 102.519Z" fill="#0074BD"/>
<path fill-rule="evenodd" clip-rule="evenodd" d="M30.531 66.0506C30.531 66.0506 8.84642 71.2321 22.8522 73.1152C28.7678 73.9113 40.5533 73.7281 51.5393 72.8012C60.515 72.0436 69.5227 70.4232 69.5227 70.4232C69.5227 70.4232 66.3601 71.7876 64.0704 73.3591C42.0456 79.1851 -0.494122 76.4719 11.7543 70.5156C22.1082 65.4781 30.531 66.0506 30.531 66.0506Z" fill="#0074BD"/>
<path fill-rule="evenodd" clip-rule="evenodd" d="M69.4337 87.918C91.8211 76.2213 81.4689 64.9796 74.2436 66.4937C72.4768 66.8645 71.6841 67.1857 71.6841 67.1857C71.6841 67.1857 72.3424 66.1486 73.5959 65.7024C87.8899 60.6508 98.8804 80.6066 68.9863 88.51C68.9863 88.51 69.33 88.1967 69.4337 87.918Z" fill="#0074BD"/>
<path fill-rule="evenodd" clip-rule="evenodd" d="M55.9391 0C55.9391 0 68.3348 12.4737 44.1784 31.6493C24.8066 47.0375 39.7616 55.8081 44.1716 65.834C32.8628 55.5734 24.568 46.5397 30.1317 38.1333C38.3019 25.7953 60.9393 19.8114 55.9391 0Z" fill="#EA2D2E"/>
<path fill-rule="evenodd" clip-rule="evenodd" d="M32.7333 119.624C54.2177 121.005 87.2187 118.855 87.9997 108.63C87.9997 108.63 86.4984 112.506 70.2425 115.581C51.9032 119.054 29.2787 118.65 15.8652 116.422C15.8652 116.422 18.6132 118.71 32.7333 119.624Z" fill="#0074BD"/>
</svg>
