<svg width="90" height="90" viewBox="0 0 90 90" fill="none" xmlns="http://www.w3.org/2000/svg">
<path d="M88.3067 40.9914L49.0079 1.69741C46.7467 -0.565802 43.0764 -0.565802 40.8124 1.69741L32.6524 9.85816L43.003 20.2088C45.4093 19.3964 48.1674 19.9411 50.0846 21.8587C52.0117 23.7882 52.5525 26.5698 51.7197 28.9841L61.6959 38.9603C64.1095 38.1286 66.8941 38.6659 68.8214 40.5966C71.5158 43.2902 71.5158 47.6549 68.8214 50.3492C66.1266 53.0443 61.7619 53.0443 59.0656 50.3492C57.0396 48.3216 56.5385 45.3449 57.5647 42.8487L48.2608 33.5448L48.26 58.0279C48.9169 58.353 49.5368 58.7871 50.0842 59.3321C52.7778 62.0254 52.7778 66.3893 50.0842 69.0871C47.3898 71.7803 43.0231 71.7803 40.3316 69.0871C37.6376 66.3895 37.6376 62.0256 40.3316 59.3321C40.9973 58.6675 41.7677 58.1645 42.5897 57.8273V33.1167C41.7673 32.781 40.9979 32.2817 40.3311 31.6117C38.2905 29.5727 37.799 26.5778 38.8456 24.072L28.6419 13.8667L1.69794 40.8099C-0.565979 43.0748 -0.565979 46.7452 1.69794 49.0085L40.9944 88.3026C43.2568 90.5658 46.9259 90.5658 49.1915 88.3026L88.3062 49.1942C90.5694 46.9299 90.5694 43.2584 88.3062 40.9947" fill="#F05133"/>
</svg>
