<svg width="114" height="70" viewBox="0 0 114 70" fill="none" xmlns="http://www.w3.org/2000/svg">
<mask id="mask0_478_3696" style="mask-type:luminance" maskUnits="userSpaceOnUse" x="0" y="0" width="114" height="70">
<path d="M0 0H114V70H0V0Z" fill="white"/>
</mask>
<g mask="url(#mask0_478_3696)">
<path fill-rule="evenodd" clip-rule="evenodd" d="M57 0C41.8 0 32.3 7.77778 28.5 23.3333C34.2 15.5556 40.85 12.6389 48.45 14.5833C52.7862 15.6917 55.8853 18.913 59.3159 22.4756C64.904 28.2809 71.3724 35 85.5 35C100.7 35 110.2 27.2222 114 11.6667C108.3 19.4444 101.65 22.3611 94.05 20.4167C89.7138 19.3083 86.6147 16.087 83.1841 12.5244C77.596 6.71913 71.1276 0 57 0ZM28.5 35C13.3 35 3.8 42.7778 0 58.3333C5.7 50.5555 12.35 47.6389 19.95 49.5833C24.2862 50.6938 27.3853 53.913 30.8159 57.4756C36.404 63.2809 42.8724 70 57 70C72.2 70 81.7 62.2222 85.5 46.6667C79.8 54.4444 73.15 57.3611 65.55 55.4167C61.2138 54.3083 58.1147 51.087 54.6841 47.5244C49.096 41.7191 42.6276 35 28.5 35Z" fill="#38BDF8"/>
</g>
</svg>
