<svg width="80" height="88" viewBox="0 0 80 88" fill="none" xmlns="http://www.w3.org/2000/svg">
<path d="M40 88C38.7578 88 37.5983 87.6766 36.5217 87.1107L25.5072 80.7239C23.8509 79.8346 24.6791 79.5113 25.176 79.3496C27.412 78.622 27.8261 78.4603 30.1449 77.1667C30.3934 77.0051 30.7246 77.0859 30.9731 77.2476L39.4203 82.1791C39.7516 82.3408 40.1656 82.3408 40.4141 82.1791L73.4576 63.5039C73.7888 63.3422 73.9545 63.0188 73.9545 62.6146V25.345C73.9545 24.9407 73.7888 24.6174 73.4576 24.4557L40.4141 5.86128C40.0828 5.69959 39.6687 5.69959 39.4203 5.86128L6.37681 24.4557C6.04555 24.6174 5.87992 25.0216 5.87992 25.345V62.6146C5.87992 62.938 6.04555 63.3422 6.37681 63.5039L15.4037 68.5971C20.2899 71.0225 23.354 68.1929 23.354 65.3633V28.5788C23.354 28.0937 23.7681 27.6086 24.3478 27.6086H28.5714C29.0683 27.6086 29.5652 28.0129 29.5652 28.5788V65.3633C29.5652 71.7501 26.0041 75.469 19.793 75.469C17.8882 75.469 16.3975 75.469 12.1739 73.4479L3.47826 68.5971C1.32505 67.3845 0 65.1208 0 62.6954V25.4258C0 23.0005 1.32505 20.7368 3.47826 19.5241L36.5217 0.848874C38.5921 -0.282958 41.4079 -0.282958 43.4783 0.848874L76.5217 19.5241C78.6749 20.7368 80 23.0005 80 25.4258V62.6954C80 65.1208 78.6749 67.3845 76.5217 68.5971L43.4783 87.2724C42.4017 87.7575 41.1594 88 40 88ZM50.1863 62.3721C35.6936 62.3721 32.7122 55.9044 32.7122 50.407C32.7122 49.9219 33.1263 49.4368 33.706 49.4368H38.0124C38.5093 49.4368 38.9234 49.7602 38.9234 50.2453C39.5859 54.5301 41.4907 56.6321 50.2691 56.6321C57.2257 56.6321 60.207 55.096 60.207 51.458C60.207 49.356 59.3789 47.8199 48.53 46.7689C39.5031 45.8796 33.8716 43.9394 33.8716 36.9058C33.8716 30.3574 39.5031 26.4768 48.9441 26.4768C59.5445 26.4768 64.7619 30.034 65.4244 37.7951C65.4244 38.0377 65.3416 38.2802 65.176 38.5227C65.0104 38.6844 64.7619 38.8461 64.5135 38.8461H60.207C59.793 38.8461 59.3789 38.5227 59.2961 38.1185C58.3023 33.672 55.735 32.2168 48.9441 32.2168C41.3251 32.2168 40.4141 34.8039 40.4141 36.7441C40.4141 39.0887 41.4907 39.8163 51.7598 41.1098C61.9462 42.4033 66.7495 44.2627 66.7495 51.2154C66.6667 58.3298 60.7039 62.3721 50.1863 62.3721Z" fill="#539E43"/>
</svg>
